<svg xmlns="http://www.w3.org/2000/svg" version="1.1" xmlns:xlink="http://www.w3.org/1999/xlink" xmlns:svgjs="http://svgjs.dev/svgjs" width="1500" height="1500" viewBox="0 0 1500 1500"><rect width="1500" height="1500" fill="#ffffff"></rect><g transform="matrix(0.6666666666666666,0,0,0.6666666666666666,248.03166452717159,22.661290322580612)"><svg viewBox="0 0 171 248" data-background-color="#111111" preserveAspectRatio="xMidYMid meet" height="2175" width="1500" xmlns="http://www.w3.org/2000/svg" xmlns:xlink="http://www.w3.org/1999/xlink"><g id="tight-bounds" transform="matrix(1,0,0,1,0.33658536585366505,0.4000000000000057)"><svg viewBox="0 0 170.32682926829267 247.2" height="247.2" width="170.32682926829267"><g><svg viewBox="0 0 170.32682926829267 247.2" height="247.2" width="170.32682926829267"><g><svg viewBox="0 0 170.32682926829267 247.2" height="247.2" width="170.32682926829267"><g id="textblocktransform"><svg viewBox="0 0 170.32682926829267 247.2" height="247.2" width="170.32682926829267" id="textblock"><g><svg viewBox="0 0 170.32682926829267 247.2" height="247.2" width="170.32682926829267"><g transform="matrix(1,0,0,1,0,0)"><svg width="170.32682926829267" viewBox="1.05 -32.15 22.599999999999998 32.8" height="247.2" data-palette-color="#31574d"><g class="wordmark-text-0" data-fill-palette-color="primary" id="text-0"><path d="M9.9 0.65L9.9 0.65Q5.55 0.65 3.3-1.38 1.05-3.4 1.05-7.25L1.05-7.25Q1.05-10 2-11.58 2.95-13.15 3.75-13.95L3.75-13.95Q4.45-14.65 4.9-14.83 5.35-15 5.65-15L5.65-15Q6.3-15 6.68-14.65 7.05-14.3 7.05-13.75L7.05-13.75Q7.05-13.4 6.93-13.13 6.8-12.85 6.65-12.65L6.65-12.65Q5.6-11.3 5.6-9.3L5.6-9.3Q5.6-7 7.2-5.95 8.8-4.9 11.35-4.9L11.35-4.9Q14.9-4.9 16.5-6.88 18.1-8.85 18.35-12.2L18.35-12.2Q18.45-13.4 18.48-14.95 18.5-16.5 18.5-17.9L18.5-17.9Q18.4-23.15 17.65-26.65L17.65-26.65Q16.4-26.75 14.95-26.8 13.5-26.85 12.2-26.85L12.2-26.85Q7.7-26.85 5.15-26.2L5.15-26.2Q4.3-26 3.75-26L3.75-26Q3.35-26 3.18-26.18 3-26.35 3-27L3-27Q3-27.9 3.3-28.75 3.6-29.6 4.1-30.25L4.1-30.25Q4.65-31 5.4-31.33 6.15-31.65 7.25-31.75L7.25-31.75Q8.95-31.9 11.23-32.02 13.5-32.15 16.4-32.15L16.4-32.15Q18.8-32.15 20.28-32.05 21.75-31.95 22.35-31.85L22.35-31.85Q23.05-31.75 23.35-31.4 23.65-31.05 23.65-30.25L23.65-30.25Q23.65-29.55 23.43-28.8 23.2-28.05 22.8-27.5L22.8-27.5Q22.9-20.8 22.58-15.38 22.25-9.95 20.6-6.2L20.6-6.2Q17.5 0.65 9.9 0.65Z" fill="#000000" data-fill-palette-color="primary"></path></g></svg></g></svg></g></svg></g></svg></g></svg></g><defs></defs></svg><rect width="170.32682926829267" height="247.2" fill="none" stroke="none" visibility="hidden"></rect></g></svg></g></svg>